<svg aria-hidden="true" style="position: absolute; width: 0; height: 0; overflow: hidden;" version="1.1" xmlns="http://www.w3.org/2000/svg" xmlns:xlink="http://www.w3.org/1999/xlink">
<defs>
<symbol id="icon-scrolldown" viewBox="0 0 61 32">
<path fill="none" stroke="#fff" style="stroke: var(--color1, #fff)" stroke-linejoin="round" stroke-linecap="round" stroke-miterlimit="4" stroke-width="5.3333" d="M57.543 4.89h-54.012l26.703 21.784 27.308-21.784z"></path>
</symbol>
<symbol id="icon-steam" viewBox="0 0 32 32">
<path  d="M16.283 31.493c8.587 0 15.549-6.932 15.549-15.484s-6.961-15.484-15.549-15.484c-8.587 0-15.549 6.932-15.549 15.484 0 1.577 0.237 3.1 0.677 4.533 0.112 0.020 0.294 0.066 0.559 0.143l-0.413-6.475c0-0.119 0.201-0.176 0.385-0.228 0.101-0.029 0.197-0.056 0.252-0.091 0.15-0.094 3.238 1.028 3.403 1.103l3.949 1.779c1.020-0.641 2.239-0.899 3.439-0.725l3.589-4.358c0.045-3.478 2.894-6.281 6.398-6.286 3.274 0.035 5.989 2.519 6.298 5.754 0.33 3.498-2.249 6.598-5.769 6.932l-5.979 4.248c-0.365 1.863-1.705 3.389-3.514 3.995-2.774 0.934-5.789-0.547-6.723-3.309l-2.079-0.686c-0.154-0.049-2.984-1.221-3.751-1.652 1.991 6.265 7.877 10.806 14.827 10.806zM26.172 11.765c0 1.756-1.432 3.18-3.199 3.18s-3.199-1.424-3.199-3.18c0-1.756 1.432-3.18 3.199-3.18s3.199 1.424 3.199 3.18zM25.108 11.765c0 1.172-0.956 2.122-2.134 2.122s-2.134-0.95-2.134-2.122c0-1.172 0.956-2.122 2.134-2.122s2.134 0.95 2.134 2.122zM10.922 24.167c0.43 0.209 0.905 0.318 1.385 0.318 0.365 0 0.72-0.060 1.070-0.174 0.805-0.278 1.46-0.86 1.829-1.62 0.77-1.585 0.1-3.483-1.49-4.248-0.27-0.129-0.585-0.020-0.715 0.244-0.13 0.268-0.020 0.581 0.245 0.71 0.035 0.015 0.070 0.030 0.105 0.050 1.050 0.537 1.455 1.814 0.915 2.857s-1.83 1.446-2.874 0.909c-0.27-0.129-0.585-0.020-0.715 0.244-0.13 0.268-0.020 0.581 0.245 0.71z"></path>
</symbol>
<symbol id="icon-xbox" viewBox="0 0 32 32">
<path  d="M10.892 3.26c1.635 0.641 3.216 1.488 4.706 2.523 0.17 0.115 0.363 0.175 0.557 0.175s0.388-0.061 0.557-0.175c1.49-1.034 3.071-1.887 4.706-2.529 0.369-0.145 0.618-0.508 0.612-0.907 0-0.399-0.248-0.756-0.624-0.895-3.271-1.24-7.232-1.24-10.496 0-0.369 0.139-0.624 0.502-0.624 0.895s0.23 0.768 0.606 0.913z"></path>
<path  d="M24.938 3.266c-0.309-0.212-0.703-0.23-1.036-0.042-1.811 1.041-3.561 2.232-5.215 3.545-0.218 0.175-0.351 0.436-0.363 0.714s0.097 0.551 0.297 0.744c3.428 3.261 8.177 13.261 9.267 17.858-2.362-3.993-7.631-13.388-11.078-16.6-0.369-0.345-0.951-0.345-1.32 0-3.452 3.212-8.704 12.613-11.066 16.612 1.090-4.598 5.827-14.61 9.255-17.87 0.206-0.194 0.315-0.466 0.303-0.744s-0.145-0.538-0.363-0.714c-1.653-1.313-3.41-2.505-5.215-3.545-0.321-0.188-0.727-0.169-1.036 0.042-4.209 2.898-6.723 7.659-6.723 12.74 0 3.714 1.339 7.296 3.779 10.091 2.919 3.424 7.189 5.396 11.726 5.396s8.813-1.966 11.738-5.402c2.429-2.783 3.767-6.364 3.767-10.085 0-5.082-2.514-9.843-6.717-12.74z"></path>
</symbol>
<symbol id="icon-twitter" viewBox="0 0 32 32">
<path d="M32 7.075c-1.175 0.525-2.444 0.875-3.769 1.031 1.356-0.813 2.394-2.1 2.887-3.631-1.269 0.75-2.675 1.3-4.169 1.594-1.2-1.275-2.906-2.069-4.794-2.069-3.625 0-6.563 2.938-6.563 6.563 0 0.512 0.056 1.012 0.169 1.494-5.456-0.275-10.294-2.888-13.531-6.862-0.563 0.969-0.887 2.1-0.887 3.3 0 2.275 1.156 4.287 2.919 5.463-1.075-0.031-2.087-0.331-2.975-0.819 0 0.025 0 0.056 0 0.081 0 3.181 2.263 5.838 5.269 6.437-0.55 0.15-1.131 0.231-1.731 0.231-0.425 0-0.831-0.044-1.237-0.119 0.838 2.606 3.263 4.506 6.131 4.563-2.25 1.762-5.075 2.813-8.156 2.813-0.531 0-1.050-0.031-1.569-0.094 2.913 1.869 6.362 2.95 10.069 2.95 12.075 0 18.681-10.006 18.681-18.681 0-0.287-0.006-0.569-0.019-0.85 1.281-0.919 2.394-2.075 3.275-3.394z"></path>
</symbol>
</defs>
</svg>
